<?xml version="1.0" standalone="no"?>
<!DOCTYPE svg PUBLIC "-//W3C//DTD SVG 20010904//EN"
 "http://www.w3.org/TR/2001/REC-SVG-20010904/DTD/svg10.dtd">
<svg version="1.0" xmlns="http://www.w3.org/2000/svg"
 width="1600.000000pt" height="1600.000000pt" viewBox="0 0 1600.000000 1600.000000"
 preserveAspectRatio="xMidYMid meet">
<metadata>
Created by potrace 1.11, written by Peter Selinger 2001-2013
</metadata>
<g transform="translate(0.000000,1600.000000) scale(0.100000,-0.100000)"
fill="#000000" stroke="none">
<path d="M3865 14663 c-400 -25 -801 -136 -1159 -321 -703 -362 -1243 -1010
-1471 -1767 -41 -136 -88 -362 -107 -515 -10 -85 -13 -930 -13 -4405 l0 -4300
24 -155 c70 -462 217 -846 470 -1228 103 -155 198 -271 345 -420 470 -479
1019 -754 1711 -859 114 -17 319 -18 4435 -18 3529 0 4333 2 4415 13 682 91
1251 367 1721 836 180 180 256 272 382 461 244 365 400 781 469 1252 16 110
17 403 21 4333 2 2981 0 4258 -8 4362 -53 722 -347 1365 -855 1873 -462 462
-1031 744 -1701 842 -111 16 -391 17 -4374 18 -2340 1 -4277 0 -4305 -2z
m3359 -1830 c4 -21 44 -321 91 -668 46 -346 134 -1001 194 -1455 61 -454 114
-838 118 -853 l8 -28 40 52 c22 29 84 97 137 150 301 301 705 503 1224 613
949 200 1877 15 2613 -522 311 -227 598 -527 815 -852 308 -460 526 -1022 626
-1615 22 -133 24 -157 12 -137 -7 10 -312 12 -1493 10 l-1484 -3 -51 106
c-158 327 -386 531 -699 625 -84 26 -103 28 -275 28 -159 1 -197 -2 -272 -21
-374 -95 -631 -326 -773 -696 -13 -34 -24 -56 -25 -49 0 9 -305 12 -1489 12
l-1490 0 -3 -22 c-4 -30 -99 662 -458 3332 -61 454 -135 1005 -165 1225 -29
220 -52 401 -51 403 4 4 2784 400 2818 401 23 1 27 -4 32 -36z m296 -5972 c0
-6 7 -63 15 -128 89 -682 412 -1137 893 -1259 292 -74 626 -18 871 147 245
164 399 407 471 744 17 76 23 149 27 303 l6 202 1455 0 1455 0 -6 -227 c-23
-867 -286 -1616 -791 -2248 -100 -125 -341 -367 -466 -466 -566 -452 -1205
-687 -1982 -729 -606 -33 -1102 99 -1499 397 -71 54 -109 77 -109 67 0 -9 16
-137 36 -286 28 -208 34 -272 24 -278 -7 -4 -33 -10 -59 -13 -25 -3 -615 -87
-1311 -186 -696 -98 -1278 -181 -1295 -183 l-30 -3 -57 420 c-31 231 -107 791
-168 1245 -61 454 -158 1174 -215 1600 -58 426 -108 801 -111 833 l-7 57 1427
0 c893 0 1426 -4 1426 -9z"/>
</g>
</svg>
